<svg height="512pt" viewBox="0 0 512 512" width="512pt" xmlns="http://www.w3.org/2000/svg"><path d="m220.640625 220.640625c3.910156-3.902344 3.910156-10.230469 0-14.140625-3.902344-3.898438-10.230469-3.898438-14.140625 0-3.898438 3.910156-3.898438 10.238281 0 14.140625 3.910156 3.910156 10.238281 3.910156 14.140625 0zm0 0"/><path d="m256 512c66.660156 0 131.203125-27.648438 179.769531-76.207031l.011719-.011719.011719-.011719c48.464843-48.46875 76.207031-112.980469 76.207031-179.769531 0-137.796875-117.632812-256-256-256-137.796875 0-256 117.632812-256 256 0 137.988281 117.820312 256 256 256zm-192.730469-246c2.320313 43.761719 19.820313 85.222656 50.042969 118.546875l-29.867188 29.863281c-38.074218-41.324218-60.699218-94.453125-63.199218-148.410156zm192.730469-183c93.65625 0 173 79.195312 173 173 0 93.65625-79.195312 173-173 173-93.65625 0-173-79.195312-173-173 0-93.65625 79.195312-173 173-173zm-158.410156 345.554688 29.863281-29.867188c33.324219 30.222656 74.785156 47.722656 118.546875 50.042969v43.023437c-53.957031-2.5-107.085938-25.125-148.410156-63.199218zm168.410156 63.199218v-43.023437c43.761719-2.320313 85.222656-19.820313 118.546875-50.042969l29.863281 29.867188c-41.324218 38.074218-94.453125 60.699218-148.410156 63.199218zm162.554688-77.34375-29.867188-29.863281c30.222656-33.324219 47.722656-74.796875 50.042969-118.558594h43.023437c-2.5 53.957031-25.125 107.097657-63.199218 148.421875zm63.199218-168.410156h-43.023437c-2.320313-43.761719-19.820313-85.222656-50.042969-118.546875l29.867188-29.863281c38.074218 41.324218 60.699218 94.453125 63.199218 148.410156zm-77.34375-162.554688-29.863281 29.867188c-33.324219-30.222656-74.785156-47.722656-118.546875-50.042969v-43.023437c53.957031 2.5 107.085938 25.125 148.410156 63.199218zm-168.410156-63.199218v43.023437c-43.761719 2.320313-85.222656 19.820313-118.546875 50.042969l-29.863281-29.867188c41.324218-38.074218 94.453125-60.699218 148.410156-63.199218zm-162.554688 77.34375 29.867188 29.863281c-30.222656 33.324219-47.722656 74.785156-50.042969 118.546875h-43.023437c2.5-53.957031 25.125-107.085938 63.199218-148.410156zm0 0"/><path d="m133.574219 285.703125 18.34375 4.582031c1.707031 5.15625 3.796875 10.183594 6.257812 15.035156l-9.75 16.242188c-2.359375 3.9375-1.742187 8.972656 1.503907 12.21875l28.292968 28.28125c3.242188 3.242188 8.277344 3.863281 12.210938 1.503906l16.246094-9.742187c4.859374 2.460937 9.890624 4.554687 15.035156 6.261719l4.585937 18.335937c1.109375 4.453125 5.109375 7.578125 9.699219 7.578125h40c4.589844 0 8.589844-3.125 9.703125-7.578125l4.582031-18.339844c5.144532-1.703125 10.171875-3.796875 15.035156-6.257812l16.25 9.742187c3.933594 2.359375 8.96875 1.738282 12.210938-1.503906l28.289062-28.28125c3.246094-3.246094 3.867188-8.285156 1.503907-12.21875l-9.746094-16.246094c2.460937-4.863281 4.554687-9.890625 6.257813-15.035156l18.339843-4.582031c4.453125-1.113281 7.578125-5.113281 7.578125-9.703125v-40c0-4.585938-3.125-8.585938-7.578125-9.699219l-18.339843-4.582031c-1.703126-5.144532-3.796876-10.171875-6.257813-15.035156l9.746094-16.246094c2.363281-3.9375 1.742187-8.972656-1.5-12.21875l-28.292969-28.289063c-3.246094-3.242187-8.28125-3.863281-12.214844-1.503906l-16.246094 9.75c-4.863281-2.460937-9.890624-4.554687-15.035156-6.257813l-4.582031-18.339843c-1.113281-4.449219-5.113281-7.574219-9.703125-7.574219h-40c-4.589844 0-8.589844 3.125-9.703125 7.574219l-4.582031 18.339843c-5.152344 1.707032-10.179688 3.800782-15.035156 6.257813l-16.246094-9.746094c-3.933594-2.359375-8.96875-1.742187-12.214844 1.503907l-28.289062 28.289062c-3.246094 3.246094-3.867188 8.28125-1.503907 12.214844l9.75 16.246094c-2.460937 4.859374-4.554687 9.886718-6.261719 15.035156l-18.339843 4.582031c-4.449219 1.113281-7.574219 5.113281-7.574219 9.703125v40c0 4.589844 3.125 8.589844 7.574219 9.703125zm12.425781-41.894531 16.273438-4.066406c3.515624-.878907 6.28125-3.589844 7.230468-7.085938 2-7.390625 4.976563-14.539062 8.839844-21.242188 1.8125-3.144531 1.777344-7.027343-.089844-10.140624l-8.660156-14.433594 17.246094-17.246094 14.433594 8.660156c3.117187 1.871094 7 1.902344 10.144531.089844 6.6875-3.859375 13.832031-6.832031 21.238281-8.839844 3.496094-.949218 6.207031-3.714844 7.085938-7.230468l4.066406-16.273438h24.382812l4.066406 16.273438c.878907 3.515624 3.589844 6.28125 7.089844 7.230468 7.378906 2 14.527344 4.972656 21.242188 8.839844 3.144531 1.8125 7.023437 1.777344 10.136718-.089844l14.433594-8.660156 17.25 17.246094-8.664062 14.433594c-1.867188 3.113281-1.902344 6.992187-.089844 10.140624 3.867188 6.710938 6.84375 13.859376 8.84375 21.242188.949219 3.496094 3.714844 6.207031 7.226562 7.085938l16.273438 4.066406v24.382812l-16.273438 4.066406c-3.515624.878907-6.28125 3.589844-7.230468 7.089844-2 7.378906-4.972656 14.527344-8.839844 21.242188-1.8125 3.144531-1.777344 7.023437.089844 10.136718l8.660156 14.433594-17.246094 17.238282-14.4375-8.65625c-3.113281-1.867188-6.992187-1.898438-10.132812-.089844-6.714844 3.871094-13.863282 6.84375-21.246094 8.84375-3.496094.949218-6.207031 3.714844-7.085938 7.230468l-4.066406 16.273438h-24.382812l-4.066406-16.273438c-.878907-3.515624-3.589844-6.28125-7.089844-7.230468-7.386719-2-14.53125-4.972656-21.238282-8.839844-3.144531-1.8125-7.023437-1.777344-10.136718.085938l-14.4375 8.65625-17.246094-17.238282 8.660156-14.433594c1.871094-3.117187 1.902344-7 .089844-10.144531-3.855469-6.683593-6.832031-13.828125-8.84375-21.242187-.945312-3.496094-3.710938-6.203125-7.226562-7.082032l-16.273438-4.066406zm0 0"/><path d="m256 286c16.542969 0 30-13.457031 30-30s-13.457031-30-30-30-30 13.457031-30 30 13.457031 30 30 30zm0-40c5.515625 0 10 4.484375 10 10s-4.484375 10-10 10-10-4.484375-10-10 4.484375-10 10-10zm0 0"/><path d="m305.503906 305.5c27.285156-27.300781 27.285156-71.710938-.003906-99.003906-15.015625-15.003906-35.746094-22.328125-56.875-20.109375-5.492188.578125-9.476562 5.5-8.898438 10.992187.578126 5.492188 5.503907 9.476563 10.992188 8.898438 15.105469-1.585938 29.914062 3.648437 40.640625 14.363281 19.492187 19.496094 19.492187 51.21875.003906 70.71875-19.5 19.488281-51.226562 19.488281-70.71875.003906-10.71875-10.730469-15.957031-25.542969-14.367187-40.644531.578125-5.492188-3.40625-10.414062-8.898438-10.992188-5.496094-.585937-10.414062 3.40625-10.992187 8.898438-2.222657 21.128906 5.105469 41.859375 20.117187 56.878906 27.289063 27.28125 71.699219 27.28125 99-.003906zm0 0"/></svg>